<?xml version="1.0" standalone="no"?>
<!DOCTYPE svg PUBLIC "-//W3C//DTD SVG 20010904//EN"
 "http://www.w3.org/TR/2001/REC-SVG-20010904/DTD/svg10.dtd">
<svg version="1.0" xmlns="http://www.w3.org/2000/svg"
 width="256.000000pt" height="257.000000pt" viewBox="0 0 256.000000 257.000000"
 preserveAspectRatio="xMidYMid meet">

<g transform="translate(0.000000,257.000000) scale(0.100000,-0.100000)"
fill="#000000" stroke="none">
<path d="M1070 2359 c-214 -199 -224 -212 -218 -287 l3 -35 208 191 c114 106
209 192 212 192 4 0 117 -123 843 -913 161 -175 292 -322 292 -326 0 -4 -58
-61 -130 -127 l-130 -119 0 -59 c0 -70 -24 -85 212 133 119 109 175 168 170
176 -4 7 -77 89 -163 182 -85 92 -364 395 -618 673 -255 278 -466 506 -470
507 -3 1 -98 -84 -211 -188z"/>
<path d="M845 1889 c-526 -487 -505 -465 -505 -523 0 -53 -56 13 505 -594 405
-439 414 -447 480 -434 18 3 178 144 481 424 250 230 454 422 454 426 0 19
-275 309 -312 330 -50 27 -119 29 -165 4 -17 -9 -105 -83 -195 -163 -336 -301
-346 -309 -377 -309 -22 0 -42 14 -90 65 -98 106 -107 90 187 354 136 122 259
241 275 264 31 47 36 116 13 170 -10 24 -321 379 -329 376 -1 0 -191 -175
-422 -390z"/>
</g>
</svg>
